# xmcd
#
# Track frame offsets:
# 150
# 27984
# 36779
# 51257
# 63766
# 71650
# 83037
# 92939
# 107925
# 116872
# 126683
# 131773
# 137046
#
# Disc length: 2079 seconds
#
#
# Revision: 0
# Processed by: cddbd v1.5.2PL0 Copyright (c) Steve Scherf et al.
# Submitted via: FreeRIP 2.951 
#
DISCID=c6081d0d
DTITLE=Darek pro babicku
DYEAR=2008
DGENRE=Freestyle
TTITLE0=Dedecek co si bral babicku
TTITLE1=Zamecky valcik
TTITLE2=Hostomicka polka
TTITLE3=Jdete baby
TTITLE4=Baba z hor
TTITLE5=Deda ma solo
TTITLE6=Babicko vypravuj pohadky
TTITLE7=V krajine pod kleti
TTITLE8=Valcik pro babinku
TTITLE9=Zpivam ti pisnicku
TTITLE10=Vzpominas babicku
TTITLE11=Babovate baby
TTITLE12=Buchty s povidly
EXTD=
EXTT0=
EXTT1=
EXTT2=
EXTT3=
EXTT4=
EXTT5=
EXTT6=
EXTT7=
EXTT8=
EXTT9=
EXTT10=
EXTT11=
EXTT12=
PLAYORDER=
